<svg width="28" height="29" viewBox="0 0 28 29" fill="none" xmlns="http://www.w3.org/2000/svg">
<rect y="0.358887" width="28" height="28" rx="4" fill="#9BD6CF"/>
<path d="M22.797 19.8C22.5191 19.6069 22.2746 19.3697 22.0729 19.0979C21.5902 18.5494 20.9759 17.8692 19.835 17.8692C18.694 17.8692 18.1016 18.5274 17.597 19.1199C17.0923 19.7123 16.7632 20.0633 16.0172 20.0633C15.2712 20.0633 14.8982 19.6464 14.4375 19.1199C13.9767 18.5933 13.3624 17.8692 12.1995 17.8692C11.0366 17.8692 10.4662 18.5274 9.96149 19.1199C9.45686 19.7123 9.12773 20.0633 8.38175 20.0633C7.63576 20.0633 7.26275 19.6464 6.802 19.1199C6.48879 18.7062 6.09273 18.3625 5.63912 18.1106C5.42099 18.0015 5.15578 18.0899 5.04672 18.3081C4.93765 18.5262 5.02606 18.7914 5.24419 18.9005C5.58868 19.1081 5.89333 19.3756 6.14375 19.6903C6.64838 20.2827 7.24078 20.941 8.38175 20.941C9.52271 20.941 10.1151 20.2828 10.6197 19.6903C11.1244 19.0979 11.4535 18.7469 12.1995 18.7469C12.9455 18.7469 13.3185 19.1638 13.7792 19.6903C14.24 20.2169 14.8543 20.941 16.0172 20.941C17.1801 20.941 17.7505 20.2828 18.2552 19.6903C18.7598 19.0979 19.089 18.7469 19.835 18.7469C20.5809 18.7469 20.9539 19.1638 21.4147 19.6903C21.6704 20.0187 21.9736 20.307 22.3143 20.546C22.5203 20.6793 22.7953 20.6204 22.9286 20.4143C23.062 20.2084 23.003 19.9333 22.797 19.8Z" fill="#DDFFDF"/>
<path d="M22.797 16.5089C22.5191 16.3157 22.2746 16.0786 22.0729 15.8068C21.5902 15.2583 20.9759 14.5781 19.835 14.5781C18.694 14.5781 18.1016 15.2363 17.597 15.8287C17.0923 16.4212 16.7632 16.7722 16.0172 16.7722C15.2712 16.7722 14.8982 16.3553 14.4375 15.8287C13.9767 15.3022 13.3624 14.5781 12.1995 14.5781C11.0366 14.5781 10.4662 15.2363 9.96149 15.8287C9.45686 16.4212 9.12773 16.7722 8.38175 16.7722C7.63576 16.7722 7.26275 16.3553 6.802 15.8287C6.48879 15.4151 6.09273 15.0713 5.63912 14.8194C5.42099 14.7104 5.15578 14.7988 5.04672 15.0169C4.93765 15.235 5.02606 15.5002 5.24419 15.6093C5.58868 15.8169 5.89333 16.0845 6.14375 16.3992C6.64838 16.9916 7.24078 17.6498 8.38175 17.6498C9.52271 17.6498 10.1151 16.9916 10.6197 16.3992C11.1244 15.8068 11.4535 15.4557 12.1995 15.4557C12.9455 15.4557 13.3185 15.8726 13.7792 16.3992C14.24 16.9258 14.8543 17.6498 16.0172 17.6498C17.1801 17.6498 17.7505 16.9916 18.2552 16.3992C18.7598 15.8068 19.089 15.4557 19.835 15.4557C20.5809 15.4557 20.9539 15.8726 21.4147 16.3992C21.6704 16.7275 21.9736 17.0159 22.3143 17.2549C22.5203 17.3882 22.7953 17.3292 22.9286 17.1232C23.062 16.9173 23.003 16.6422 22.797 16.5089Z" fill="#DDFFDF"/>
<path d="M22.797 12.9982C22.5191 12.8051 22.2746 12.5679 22.0729 12.2961C21.5902 11.7476 20.9759 11.0674 19.835 11.0674C18.694 11.0674 18.1016 11.7256 17.597 12.3181C17.0923 12.9105 16.7632 13.2615 16.0172 13.2615C15.2712 13.2615 14.8982 12.8446 14.4375 12.3181C13.9767 11.7915 13.3624 11.0674 12.1995 11.0674C11.0366 11.0674 10.4662 11.7256 9.96149 12.3181C9.45686 12.9105 9.12773 13.2615 8.38175 13.2615C7.63576 13.2615 7.26275 12.8446 6.802 12.3181C6.48879 11.9044 6.09273 11.5607 5.63912 11.3088C5.42099 11.1997 5.15578 11.2881 5.04672 11.5062C4.93765 11.7244 5.02606 11.9896 5.24419 12.0986C5.58868 12.3063 5.89333 12.5738 6.14375 12.8885C6.64838 13.4809 7.24078 14.1392 8.38175 14.1392C9.52271 14.1392 10.1151 13.481 10.6197 12.8885C11.1244 12.2961 11.4535 11.9451 12.1995 11.9451C12.9455 11.9451 13.3185 12.362 13.7792 12.8885C14.24 13.4151 14.8543 14.1392 16.0172 14.1392C17.1801 14.1392 17.7505 13.481 18.2552 12.8885C18.7599 12.2961 19.089 11.9451 19.835 11.9451C20.5809 11.9451 20.9539 12.362 21.4147 12.8885C21.6704 13.2168 21.9736 13.5052 22.3143 13.7442C22.5203 13.8775 22.7953 13.8186 22.9286 13.6125C23.062 13.4066 23.003 13.1315 22.797 12.9982Z" fill="#DDFFDF"/>
<path d="M5.24436 8.80759C5.58886 9.01522 5.8935 9.28274 6.14392 9.59746C6.64855 10.1899 7.24096 10.8481 8.38192 10.8481C9.52288 10.8481 10.1152 10.1899 10.6199 9.59746C11.1245 9.00506 11.4537 8.65401 12.1997 8.65401C12.9456 8.65401 13.3187 9.07091 13.7794 9.59746C14.2401 10.1241 14.8545 10.8481 16.0174 10.8481C17.1803 10.8481 17.7507 10.1899 18.2554 9.59746C18.76 9.00506 19.0891 8.65401 19.8351 8.65401C20.5811 8.65401 20.9541 9.07091 21.4149 9.59746C21.6706 9.92579 21.9738 10.2142 22.3144 10.4532C22.5204 10.5865 22.7955 10.5275 22.9288 10.3215C23.0621 10.1155 23.0032 9.84045 22.7971 9.70716C22.5192 9.51401 22.2747 9.27686 22.0731 9.00506C21.5904 8.45654 20.976 7.77637 19.8351 7.77637C18.6942 7.77637 18.1018 8.43458 17.5971 9.02702C17.0925 9.61943 16.7633 9.97047 16.0173 9.97047C15.2714 9.97047 14.8983 9.55358 14.4376 9.02702C13.9769 8.50043 13.3625 7.77637 12.1996 7.77637C11.0367 7.77637 10.4663 8.43458 9.96162 9.02702C9.45699 9.61943 9.12786 9.97047 8.38188 9.97047C7.63589 9.97047 7.26296 9.55358 6.80218 9.02698C6.48897 8.61332 6.0929 8.26957 5.63929 8.01768C5.42116 7.90861 5.15595 7.99702 5.04689 8.21515C4.93783 8.43328 5.02627 8.69853 5.24436 8.80759Z" fill="#DDFFDF"/>
</svg>
