<svg width="21" height="18" viewBox="0 0 21 18" fill="none" xmlns="http://www.w3.org/2000/svg">
<path d="M6.74297 17.1251C14.2883 17.1251 18.4164 10.8724 18.4164 5.45167C18.4164 5.27589 18.4125 5.0962 18.4047 4.92042C19.2077 4.33967 19.9007 3.62033 20.4512 2.7962C19.7033 3.12896 18.9092 3.34627 18.0961 3.44074C18.9522 2.92755 19.5933 2.12135 19.9004 1.17159C19.095 1.64892 18.2142 1.98563 17.2957 2.1673C16.6769 1.50976 15.8587 1.07439 14.9676 0.928498C14.0765 0.78261 13.1622 0.934331 12.366 1.3602C11.5697 1.78607 10.936 2.46238 10.5627 3.28455C10.1894 4.10672 10.0974 5.02897 10.3008 5.9087C8.66992 5.82686 7.07445 5.40321 5.61782 4.6652C4.16119 3.9272 2.87592 2.89132 1.84531 1.62472C1.3215 2.52782 1.16122 3.59649 1.39703 4.61353C1.63284 5.63057 2.24706 6.51966 3.11484 7.10011C2.46336 7.07943 1.82615 6.90402 1.25586 6.58839V6.63917C1.25528 7.58691 1.58292 8.50561 2.1831 9.2391C2.78327 9.97258 3.61894 10.4756 4.54805 10.6626C3.94455 10.8277 3.31116 10.8518 2.69687 10.7329C2.95905 11.548 3.46915 12.2609 4.15598 12.7721C4.84281 13.2833 5.67211 13.5673 6.52813 13.5845C5.07486 14.726 3.27965 15.3452 1.43164 15.3423C1.10391 15.3418 0.776504 15.3217 0.451172 15.2821C2.32855 16.4866 4.51245 17.1263 6.74297 17.1251Z" fill="#1D2130"/>
</svg>
